# xmcd
#
# Track frame offsets:
#	151
#	13242
#	24742
#	44286
#	64015
#	81177
#	91643
#	105487
#	122898
#	137899
#	156377
#	171749
#	186123
#	203142
#	217795
#	230535
#
# Disc length: 3311 seconds
#
# Revision: 1
# Processed by: cddbd v1.5.2PL0 Copyright (c) Steve Scherf et al.
# Submitted via: audiograbber 1.83.01
#
DISCID=dd0ced10
DTITLE=Roy Rhodes - Call It Country
DYEAR=1900
DGENRE=Country
TTITLE0=Next Thing Smokin'
TTITLE1=Chatahoochie
TTITLE2=I Swear
TTITLE3=Little Man
TTITLE4=Kick A Little
TTITLE5=Crazy Little Thing Called Love
TTITLE6=Whose Cheatin' Who
TTITLE7=Love Me
TTITLE8=She's Not The Cheatin' Kind
TTITLE9=Gone Country
TTITLE10=Baby Likes To Rock It
TTITLE11=Trashy Women
TTITLE12=I Don't Wanna Miss A Thing
TTITLE13=Summertime Blues
TTITLE14=Don't Rock The Juke Box
TTITLE15=Please Remember Me
EXTD=
EXTT0=
EXTT1=
EXTT2=
EXTT3=
EXTT4=
EXTT5=
EXTT6=
EXTT7=
EXTT8=
EXTT9=
EXTT10=
EXTT11=
EXTT12=
EXTT13=
EXTT14=
EXTT15=
PLAYORDER=
